<?xml version="1.0" encoding="utf-8"?>
<!-- Generator: Adobe Illustrator 16.0.0, SVG Export Plug-In . SVG Version: 6.00 Build 0)  -->
<!DOCTYPE svg PUBLIC "-//W3C//DTD SVG 1.1//EN" "http://www.w3.org/Graphics/SVG/1.1/DTD/svg11.dtd">
<svg version="1.1" id="Layer_2" xmlns="http://www.w3.org/2000/svg" xmlns:xlink="http://www.w3.org/1999/xlink" x="0px" y="0px"
	 width="80.5px" height="38.25px" viewBox="0 0 80.5 38.25" enable-background="new 0 0 80.5 38.25" xml:space="preserve">
<g>
	<path fill="#FFFFFF" d="M39.75,11.5C35.5,11.25,33,29.25,33,29.25s0.5,8,7,7.75s7-7.75,7-7.75S44,11.75,39.75,11.5z"/>
	<path fill="#FFFFFF" d="M49.538,7.688c-3.327,2.655,6.85,17.711,6.85,17.711s5.721,5.614,10.387,1.082
		c4.667-4.531,0.023-10.443,0.023-10.443S52.865,5.031,49.538,7.688z"/>
	<path fill="#FFFFFF" d="M13.2,16.037c0,0-4.644,5.912,0.023,10.443c4.666,4.532,10.388-1.082,10.388-1.082
		s10.178-15.056,6.851-17.711C27.133,5.031,13.2,16.037,13.2,16.037z"/>
</g>
<path fill="#FFFFFF" d="M53.353,0c1.422,3.874,17.521,6.406,17.521,6.406S78.468,6.049,78.72,0H53.353z"/>
<path fill="#FFFFFF" d="M1.276,0c0.252,6.049,7.847,6.406,7.847,6.406S25.224,3.874,26.646,0H1.276z"/>
<path fill="#FFFFFF" d="M39.75,6.25C43.202,6.25,46,3.452,46,0H33.5C33.5,3.452,36.298,6.25,39.75,6.25z"/>
</svg>
